<svg height="469pt" viewBox="0 -42 469.33334 469" width="469pt" xmlns="http://www.w3.org/2000/svg"><path d="m21.332031 64.167969h362.667969c11.78125 0 21.332031 9.550781 21.332031 21.332031v277.332031c0 11.785157-9.550781 21.335938-21.332031 21.335938h-362.667969c-11.78125 0-21.332031-9.550781-21.332031-21.335938v-277.332031c0-11.78125 9.550781-21.332031 21.332031-21.332031zm0 0" fill="#080b36"/><path d="m384 384.167969h-362.667969v-277.335938l170.667969 170.667969h64l128-128zm0 0" fill="#4c4f6e"/><path d="m384 384.167969h-192v-106.667969h64l128-128zm0 0" fill="#2c2f53"/><path d="m384 64.167969h-106.183594c-29.3125 38.59375-28.824218 92.128906 1.191406 130.179687 30.015626 38.054688 81.964844 51 126.324219 31.480469v-140.328125c0-11.78125-9.550781-21.332031-21.332031-21.332031zm0 0" fill="#080b36"/><path d="m149.332031 213.5-149.332031 149.332031c0 11.785157 9.550781 21.335938 21.332031 21.335938h362.667969c11.78125 0 21.332031-9.550781 21.332031-21.335938l-149.332031-149.332031zm0 0" fill="#4c4f6e"/><path d="m262.25 271.25 25.75-25.75-32-32h-128l57.75 57.75c4.003906 4.003906 9.429688 6.25 15.085938 6.25h46.328124c5.65625 0 11.082032-2.246094 15.085938-6.25zm0 0" fill="#4c4f6e"/><path d="m384 64.167969h-362.667969c-11.78125 0-21.332031 9.550781-21.332031 21.332031l164.417969 164.417969c4 4 9.425781 6.25 15.085937 6.25h46.328125c5.65625 0 11.082031-2.25 15.082031-6.25l164.417969-164.417969c0-11.78125-9.550781-21.332031-21.332031-21.332031zm0 0" fill="#7c7f95"/><path d="m384 64.167969h-106.183594c-32.355468 42.234375-28.320312 101.925781 9.425782 139.421875l118.089843-118.089844c0-11.78125-9.550781-21.332031-21.332031-21.332031zm0 0" fill="#2c2f53"/><path d="m224 234.832031h-42.667969c-2.828125 0-5.539062-1.121093-7.539062-3.125l-128-128c-3.050781-3.050781-3.964844-7.636719-2.3125-11.621093 1.648437-3.988282 5.539062-6.585938 9.851562-6.585938h298.667969c5.890625 0 10.667969 4.777344 10.667969 10.667969s-4.777344 10.664062-10.667969 10.664062h-272.917969l106.667969 106.667969h38.25c5.890625 0 10.667969 4.777344 10.667969 10.667969s-4.777344 10.664062-10.667969 10.664062zm0 0" fill="#cacad4"/><path d="m352 362.832031h-298.667969c-4.3125 0-8.203125-2.597656-9.851562-6.582031-1.652344-3.988281-.738281-8.574219 2.3125-11.625l85.332031-85.332031c4.164062-4.171875 10.921875-4.171875 15.085938-.003907 4.167968 4.164063 4.167968 10.921876-.003907 15.085938l-67.125 67.125h272.917969c5.890625 0 10.667969 4.777344 10.667969 10.667969s-4.777344 10.664062-10.667969 10.664062zm0 0" fill="#7c7f95"/><path d="m53.332031 277.5c-2.828125 0-5.542969-1.121094-7.542969-3.121094-2-2.003906-3.125-4.714844-3.121093-7.546875v-85.332031c.003906-5.886719 4.777343-10.65625 10.664062-10.65625s10.664063 4.769531 10.667969 10.65625v85.332031c0 2.832031-1.121094 5.542969-3.121094 7.546875-2.003906 2-4.714844 3.121094-7.546875 3.121094zm0 0" fill="#7c7f95"/><path d="m469.332031 106.832031c0 58.910157-47.753906 106.667969-106.664062 106.667969-58.910157 0-106.667969-47.757812-106.667969-106.667969 0-58.910156 47.757812-106.664062 106.667969-106.664062 58.910156 0 106.664062 47.753906 106.664062 106.664062zm0 0" fill="#e80035"/><path d="m426.667969 106.832031c0 47.128907-38.207031 85.335938-85.335938 85.335938-47.128906 0-85.332031-38.207031-85.332031-85.335938 0-47.128906 38.203125-85.332031 85.332031-85.332031 47.128907 0 85.335938 38.203125 85.335938 85.332031zm0 0" fill="#fa4659"/><path d="m354.132812 30.035156c-14.140624-14.136718-40.882812-10.316406-59.730468 8.53125-18.851563 18.851563-22.671875 45.59375-8.535156 59.730469 14.140624 14.140625 40.882812 10.320313 59.730468-8.53125 18.851563-18.851563 22.671875-45.59375 8.535156-59.730469zm0 0" fill="#fdb8bf"/><path d="m384 170.832031c0 11.785157-9.550781 21.335938-21.332031 21.335938-11.785157 0-21.335938-9.550781-21.335938-21.335938 0-11.78125 9.550781-21.332031 21.335938-21.332031 11.78125 0 21.332031 9.550781 21.332031 21.332031zm0 0" fill="#e80035"/><path d="m362.667969 42.832031c11.78125 0 21.332031 9.550781 21.332031 21.335938v42.664062c0 11.785157-9.550781 21.335938-21.332031 21.335938-11.785157 0-21.335938-9.550781-21.335938-21.335938v-42.664062c0-11.785157 9.550781-21.335938 21.335938-21.335938zm0 0" fill="#e80035"/><g fill="#f6f6f8"><path d="m362.667969 21.5c11.78125 0 21.332031 9.550781 21.332031 21.332031v42.667969c0 11.78125-9.550781 21.332031-21.332031 21.332031-11.785157 0-21.335938-9.550781-21.335938-21.332031v-42.667969c0-11.78125 9.550781-21.332031 21.335938-21.332031zm0 0"/><path d="m384 149.5c0 11.78125-9.550781 21.332031-21.332031 21.332031-11.785157 0-21.335938-9.550781-21.335938-21.332031s9.550781-21.332031 21.335938-21.332031c11.78125 0 21.332031 9.550781 21.332031 21.332031zm0 0"/></g></svg>